<svg width="24" height="24" viewBox="0 0 24 24" xmlns="http://www.w3.org/2000/svg"><title>mail</title><path d="M12 24C5.373 24 0 18.627 0 12S5.373 0 12 0s12 5.373 12 12-5.373 12-12 12zm5.98-12.508c0-1.06-.23-1.994-.688-2.805-.46-.81-1.11-1.436-1.956-1.875-.845-.44-1.804-.66-2.878-.66-1.275 0-2.4.28-3.38.84-.98.56-1.734 1.33-2.264 2.314-.53.984-.794 2.08-.794 3.285 0 1.74.52 3.097 1.556 4.073 1.038.977 2.484 1.465 4.34 1.465 1.274 0 2.434-.222 3.48-.667v-1.405c-.602.22-1.212.387-1.832.502-.62.115-1.19.172-1.707.172-1.367 0-2.41-.36-3.13-1.08-.72-.722-1.08-1.755-1.08-3.103 0-1 .193-1.884.58-2.648.39-.765.947-1.35 1.675-1.755.727-.405 1.584-.608 2.57-.608.762 0 1.44.16 2.033.476.593.318 1.053.778 1.38 1.38.328.604.49 1.298.49 2.085 0 .737-.092 1.334-.277 1.79-.186.457-.435.685-.747.685-.37 0-.556-.34-.556-1.018l.17-3.58c-.33-.114-.745-.21-1.25-.29-.506-.08-.968-.122-1.388-.122-1.055 0-1.91.315-2.564.945-.654.63-.98 1.46-.98 2.49 0 .904.248 1.615.746 2.135.498.52 1.18.78 2.044.78.815 0 1.486-.314 2.014-.944h.117c.122.282.322.51.6.683.28.174.6.26.96.26.542 0 1.018-.166 1.428-.498.41-.332.73-.79.953-1.373.225-.583.337-1.227.337-1.93zm-7.5.916c0-.66.17-1.18.51-1.56.34-.38.813-.572 1.424-.572.312 0 .593.027.842.08l-.095 1.62c-.048.698-.187 1.202-.417 1.512-.23.31-.564.465-1.003.465-.84 0-1.26-.515-1.26-1.545z" fill="#4C2D26" fill-rule="evenodd"/></svg>