<svg width="20" height="25" viewBox="0 0 20 25" xmlns="http://www.w3.org/2000/svg"><title>Fill 1</title><path d="M19.092 20.02c-.17-.17-.313-.27-.44-.305-.128-.037-.243-.01-.33.08l-.084.083c-.873.872-1.888 1.557-3.02 2.035-1.17.495-2.413.746-3.695.746s-2.526-.252-3.696-.747c-1.13-.478-2.146-1.163-3.02-2.035-.907-.91-1.592-1.925-2.034-3.02-.43-1.066-.57-1.868-.618-2.132l-.01-.058c-.06-.31-.345-.332-.756-.27-.172.027-.69.106-.642.48v.01c.14.864.382 1.713.724 2.52.55 1.3 1.336 2.467 2.337 3.47 1 1 2.168 1.787 3.467 2.336 1.345.57 2.773.858 4.246.858 1.472 0 2.9-.29 4.246-.858 1.298-.55 2.464-1.336 3.466-2.338.003-.003.058-.057.087-.09.11-.12.207-.33-.23-.766zM11.51 2.643c-1.408 0-2.905.284-4.005.76-.117.046-.187.14-.203.273-.014.125.02.29.104.505.068.175.25.638.6.505 1.125-.43 2.37-.666 3.503-.666 1.284 0 2.53.25 3.703.746.93.394 1.81.964 2.766 1.792.07.06.143.09.22.09.186 0 .364-.182.517-.354.255-.286.43-.524.18-.762-.914-.865-1.914-1.51-3.15-2.033-1.34-.57-2.768-.857-4.238-.857zM9.59 14.54c.003.16.148.3.235.383l.027.026c.15.146.292.22.422.22.11 0 .176-.05.2-.073.065-.06.808-.814.88-.886l.827.827c.078.087.16.13.26.133.13 0 .275-.08.427-.234.358-.365.18-.562.092-.657l-.84-.84.875-.883c.192-.207.023-.428-.146-.597-.247-.246-.484-.31-.636-.17l-.87.873-.88-.88c-.047-.045-.106-.07-.17-.07-.118 0-.257.08-.413.237-.27.27-.328.457-.187.607l.88.878-.875.876c-.072.073-.108.15-.107.23zm-5.58 1.3c.004.016.13.36.2.53.396.935.962 1.775 1.684 2.496.72.72 1.56 1.288 2.497 1.683.97.41 1.998.617 3.06.617 1.06 0 2.088-.208 3.057-.618.935-.396 1.776-.963 2.497-1.684.72-.72 1.287-1.56 1.683-2.497.41-.97.618-2 .618-3.06s-.208-2.088-.618-3.057c-.396-.935-.962-1.776-1.683-2.497-.72-.72-1.56-1.287-2.497-1.683-.97-.41-1.998-.618-3.058-.618-1.074 0-2.146.214-3.1.618-.765.323-2.058 1.155-2.814 1.935l-.005.004V1.547h10.862c.395-.004.395-.556.395-.738 0-.182 0-.734-.396-.738H4.65c-.32 0-.518.266-.518.512v9.1c0 .294.366.506.706.58.663.14.816-.072.98-.296l.02-.03c.25-.37 1.024-1.15 1.032-1.157 1.21-1.21 2.828-1.875 4.555-1.875 1.72 0 3.333.666 4.543 1.876 1.214 1.215 1.883 2.824 1.883 4.53 0 1.714-.667 3.323-1.874 4.53-1.193 1.193-2.86 1.877-4.57 1.877-1.16 0-2.28-.31-3.24-.893l.005-5.534c0-.738.322-1.54.858-2.145.613-.693 1.458-1.074 2.38-1.074.89 0 1.725.34 2.346.955.616.61.955 1.424.955 2.29 0 1.85-1.455 3.298-3.31 3.298-.36 0-1.01-.158-1.036-.164-.375-.113-.534.407-.587.58-.2.658.102.79.165.81.597.184.99.22 1.503.22 2.62 0 4.752-2.134 4.752-4.755 0-2.6-2.13-4.717-4.75-4.717-1.282 0-2.487.49-3.392 1.38-.862.848-1.356 1.98-1.356 3.102l-.002.027c-.004.14-.007 3.458-.007 4.546l-.004-.005c-.493-.546-.98-1.38-1.302-2.233-.127-.335-.413-.275-.803-.155-.17.052-.687.212-.573.586l.002.005z" fill="#4C2D26" fill-rule="evenodd"/></svg>