<svg width="25" height="24" viewBox="0 0 25 24" xmlns="http://www.w3.org/2000/svg"><title>Fill 6</title><path d="M12.216 0C5.47 0 0 5.47 0 12.218c0 5.397 3.5 9.976 8.355 11.592.61.112.834-.265.834-.59 0-.29-.012-1.057-.018-2.077-3.398.738-4.115-1.638-4.115-1.638C4.5 18.095 3.7 17.718 3.7 17.718c-1.11-.758.084-.742.084-.742 1.226.086 1.872 1.26 1.872 1.26 1.09 1.866 2.86 1.327 3.555 1.014.112-.79.428-1.328.777-1.633-2.713-.31-5.565-1.357-5.565-6.04 0-1.332.476-2.423 1.258-3.277-.126-.31-.545-1.55.12-3.233 0 0 1.025-.33 3.36 1.252.973-.272 2.02-.407 3.057-.412 1.038.005 2.083.14 3.06.41 2.332-1.58 3.355-1.25 3.355-1.25.667 1.68.248 2.923.122 3.232.783.854 1.256 1.945 1.256 3.278 0 4.694-2.857 5.727-5.578 6.03.438.376.83 1.122.83 2.262 0 1.633-.016 2.95-.016 3.35 0 .328.22.708.84.59 4.85-1.62 8.348-6.196 8.348-11.592C24.434 5.47 18.964 0 12.216 0" fill="#4C2D26" fill-rule="evenodd"/></svg>