<svg width="25" height="25" viewBox="0 0 25 25" xmlns="http://www.w3.org/2000/svg"><title>Fill 3</title><path d="M18.167 20.584c-.105-.624-.65-3.624-1.994-7.308 3.216-.514 6.042.327 6.393.438-.457 2.852-2.096 5.315-4.4 6.87m-5.734 1.753c-2.372 0-4.56-.81-6.3-2.164.185-.377 2.263-4.386 8.052-6.4l.068-.023c1.44 3.74 2.037 6.873 2.19 7.772-1.233.525-2.588.815-4.01.815M2.17 12.087c0-.105 0-.21.004-.313.45.01 5.423.073 10.548-1.46.294.575.575 1.158.832 1.74-.135.04-.27.08-.404.123-5.293 1.708-8.11 6.366-8.343 6.763-1.64-1.817-2.638-4.22-2.638-6.853m5.9-9.276c.27.372 2.104 2.91 3.804 5.93-4.8 1.272-9.03 1.254-9.488 1.248.665-3.18 2.81-5.824 5.683-7.177m4.362-.973c2.608 0 4.992.977 6.804 2.583-.185.263-1.73 2.337-5.38 3.703-1.68-3.086-3.545-5.62-3.83-6 .773-.187 1.578-.286 2.406-.286m7.945 3.768c1.43 1.745 2.295 3.966 2.318 6.385-.34-.07-3.732-.758-7.147-.33l-.22-.53c-.214-.498-.443-.995-.682-1.483 3.795-1.547 5.515-3.75 5.73-4.042M12.433.07C5.807.07.416 5.456.416 12.073c0 6.616 5.39 12 12.016 12s12.016-5.384 12.016-12c0-6.617-5.39-12-12.016-12" fill="#4C2D26" fill-rule="evenodd"/></svg>