<svg width="24" height="24" viewBox="0 0 24 24" xmlns="http://www.w3.org/2000/svg"><title>Fill 10</title><path d="M18.03 9.726c.006.12.006.246.006.372 0 3.822-2.91 8.232-8.232 8.232-1.632 0-3.156-.48-4.422-1.308.228.03.456.042.69.042 1.356 0 2.604-.462 3.594-1.236-1.266-.024-2.334-.858-2.7-2.01.18.036.36.054.546.054.264 0 .522-.036.762-.102-1.326-.27-2.322-1.434-2.322-2.838v-.036c.39.216.834.348 1.308.36-.78-.516-1.29-1.404-1.29-2.406 0-.528.144-1.026.39-1.452 1.428 1.752 3.558 2.904 5.964 3.024-.054-.21-.078-.432-.078-.66 0-1.596 1.296-2.892 2.892-2.892.834 0 1.584.348 2.112.912.66-.132 1.278-.372 1.836-.702-.216.678-.672 1.242-1.272 1.602.588-.072 1.146-.228 1.662-.456-.39.582-.882 1.092-1.446 1.5M12 0C5.373 0 0 5.373 0 12s5.373 12 12 12 12-5.373 12-12S18.627 0 12 0" fill="#ffffff" fill-rule="evenodd"/></svg>
