<svg width="24" height="24" viewBox="0 0 24 24" xmlns="http://www.w3.org/2000/svg"><title>Fill 8</title><path d="M16.188 16.444c-3.17 0-4.27-1.43-4.857-3.207l-.585-1.833c-.44-1.338-.953-2.383-2.566-2.383-1.12 0-2.255.808-2.255 3.062 0 1.76.898 2.86 2.162 2.86 1.43 0 2.383-1.064 2.383-1.064l.586 1.595s-.99.97-3.06.97C5.43 16.444 4 14.942 4 12.156c0-2.895 1.43-4.6 4.124-4.6 2.438 0 3.666.88 4.435 3.263l.604 1.832c.44 1.338 1.21 2.31 3.06 2.31 1.247 0 1.907-.275 1.907-.954 0-.53-.31-.916-1.245-1.136l-1.247-.293c-1.52-.367-2.126-1.155-2.126-2.4 0-2 1.613-2.622 3.263-2.622 1.87 0 3.005.678 3.152 2.328l-1.833.22c-.073-.788-.55-1.118-1.43-1.118-.806 0-1.3.366-1.3.99 0 .55.238.88 1.044 1.063l1.173.256c1.577.367 2.42 1.136 2.42 2.62 0 1.834-1.54 2.53-3.812 2.53M12 0C5.373 0 0 5.372 0 12c0 6.627 5.373 12 12 12 6.628 0 12-5.373 12-12 0-6.628-5.372-12-12-12" fill="#ffffff" fill-rule="evenodd"/></svg>
